Coordinates
version=1
nRows=17
nColumns=24
inDegrees=yes

Units are S.I. units (second, meters, Newtons, ...)
Angles are in degrees.

endheader
time	pelvis_tilt	pelvis_list	pelvis_rotation	pelvis_tx	pelvis_ty	pelvis_tz	hip_flexion_r	hip_adduction_r	hip_rotation_r	knee_angle_r	ankle_angle_r	subtalar_angle_r	mtp_angle_r	hip_flexion_l	hip_adduction_l	hip_rotation_l	knee_angle_l	ankle_angle_l	subtalar_angle_l	mtp_angle_l	lumbar_extension	lumbar_bending	lumbar_rotation
      4.73500000	    -17.05807138	      4.83449519	    -11.27844782	     -1.25867398	     -0.03811149	     -0.34318861	     -0.76182545	     -2.56730796	      3.13433936	    -16.50784208	      8.88132456	      2.14101820	      4.61730099	     44.49171377	     -4.32884751	    -21.74149239	    -12.60940536	     -2.33268105	      9.74922159	     21.95064099	     22.00681137	     -1.89499306	     -1.07705887
      4.74000000	    -16.99719046	      5.10643347	    -11.28613951	     -1.25021586	     -0.03864292	     -0.34375951	     -0.86603262	     -3.08791049	      2.96389126	    -17.26032284	      8.19487804	      2.68380553	      4.92482164	     44.32914137	     -3.99071781	    -21.51584776	    -13.12209500	     -2.68563550	      8.98252253	     21.78828433	     22.19827404	     -2.14166532	     -0.96292879
      4.74500000	    -16.91942375	      5.26506454	    -11.19547572	     -1.24173242	     -0.03914168	     -0.34441276	     -1.01597368	     -3.49450431	      2.61005382	    -17.98071353	      7.30842165	      3.13013462	      5.70442466	     44.17454258	     -3.70125171	    -21.27468455	    -13.72793890	     -3.09502080	      8.38154492	     21.65458241	     22.34181343	     -2.32908924	     -0.98417670
      4.75000000	    -16.92784154	      5.52252295	    -11.25076386	     -1.23318581	     -0.03961186	     -0.34481551	     -0.99802433	     -3.95474017	      2.65733607	    -18.76989088	      6.34868544	      3.37828958	      6.08808345	     44.06877046	     -3.46587787	    -21.32743013	    -14.30036026	     -3.66425340	      7.74454606	     21.52896713	     22.62488453	     -2.54275676	     -0.82040833
      4.75500000	    -16.93359698	      5.78158376	    -11.25418958	     -1.22461961	     -0.04005676	     -0.34535056	     -0.92223786	     -4.44241658	      2.48328432	    -19.64316668	      5.31259119	      3.74407944	      6.74185632	     43.95207562	     -3.17092711	    -21.27861326	    -14.83600337	     -4.39302279	      6.87360010	     21.35973496	     22.90157578	     -2.77322593	     -0.71206306
      4.76000000	    -16.92566753	      5.98285350	    -11.19318228	     -1.21608481	     -0.04047560	     -0.34606611	     -0.81355332	     -4.90890804	      2.01496330	    -20.55777986	      4.09776209	      4.13091591	      8.37442835	     43.83201701	     -2.85982484	    -21.10848216	    -15.37027745	     -5.19291111	      5.82915659	     21.15775307	     23.13518468	     -2.96777816	     -0.69855986
      4.76500000	    -16.97267015	      6.30262136	    -11.13607273	     -1.20742416	     -0.04083575	     -0.34661660	     -0.62636938	     -5.45968260	      1.76194521	    -21.42628662	      2.72225551	      4.16400173	     10.50631177	     43.75358634	     -2.48294532	    -21.13005014	    -15.85951037	     -6.14074081	      4.84208731	     20.81237675	     23.47923446	     -3.28566788	     -0.67033443
      4.77000000	    -16.99083263	      6.63169156	    -11.25223539	     -1.19897643	     -0.04103452	     -0.34691623	     -0.32615243	     -5.98318872	      1.85934271	    -22.50744479	      1.34502128	      4.24257276	     11.03537865	     43.62770913	     -2.21839517	    -21.21976637	    -16.31846726	     -7.12139086	      3.79138935	     20.43722791	     23.78563965	     -3.55103984	     -0.38365084
      4.77500000	    -17.03538851	      6.93871062	    -11.15365497	     -1.19045157	     -0.04129623	     -0.34760509	     -0.00033379	     -6.55633594	      1.36321628	    -23.50356707	     -0.32643078	      4.14593662	     14.28897338	     43.57133802	     -1.78630519	    -20.96077285	    -16.81832963	     -8.00722492	      2.58282987	     19.53536148	     24.09933566	     -3.86709374	     -0.35704452
      4.78000000	    -17.10715105	      7.28167412	    -11.16577079	     -1.18215186	     -0.04149537	     -0.34815847	      0.50517730	     -7.13567944	      1.15925306	    -24.75848790	     -1.87880168	      4.35265378	     15.35075403	     43.55897672	     -1.40889049	    -20.77209680	    -17.31340775	     -8.93111585	      1.21623515	     18.85838647	     24.42731009	     -4.16908750	     -0.23786075
      4.78500000	    -17.20725183	      7.66914582	    -11.04974589	     -1.17362294	     -0.04166274	     -0.34877111	      1.00228180	     -7.76179108	      0.82291188	    -25.88197696	     -3.73115812	      4.13374028	     17.86315551	     43.58400620	     -0.89670747	    -20.43530501	    -17.85440368	     -9.62000296	     -0.00865185	     17.60496757	     24.82584446	     -4.57009587	     -0.22892729
      4.79000000	    -17.25115516	      8.04789887	    -11.04548775	     -1.16535765	     -0.04170707	     -0.34925566	      1.57177931	     -8.36988773	      0.66882698	    -27.14724909	     -5.64870095	      3.85307532	     20.02840898	     43.56789559	     -0.45409537	    -20.10282646	    -18.44123704	    -10.13554166	     -1.20368991	     16.34763158	     25.13496341	     -4.93063140	     -0.08206160
      4.79500000	    -17.23748127	      8.39573312	    -11.08043863	     -1.15722054	     -0.04163258	     -0.34962898	      2.13593687	     -8.93068970	      0.61913401	    -28.42764706	     -7.71578335	      3.32772386	     22.53243986	     43.50133310	     -0.04942169	    -19.69015205	    -19.09808653	    -10.33890644	     -2.16742958	     14.84153087	     25.35932844	     -5.26686429	      0.12648437
      4.80000000	    -17.30306827	      8.77551323	    -11.00802329	     -1.14909336	     -0.04165889	     -0.35015302	      2.84375837	     -9.52882396	      0.45233895	    -29.84182584	     -9.76253192	      2.96498440	     24.20069749	     43.55539710	      0.44639086	    -19.28637082	    -19.79465203	    -10.49050969	     -3.25515079	     13.60462370	     25.66333744	     -5.66098503	      0.15809427
      4.80500000	    -17.31209483	      9.13418424	    -10.99450815	     -1.14111111	     -0.04157744	     -0.35057557	      3.55942628	    -10.08699604	      0.42613338	    -31.27964039	    -11.92302821	      2.35178144	     26.21258624	     43.55217042	      0.90208081	    -18.86492973	    -20.55129809	    -10.34657715	     -4.11563809	     12.08807422	     25.88867045	     -6.02759229	      0.28233643
      4.81000000	    -17.29581312	      9.47172804	    -10.98218837	     -1.13323941	     -0.04144711	     -0.35094302	      4.30251295	    -10.60518036	      0.45324445	    -32.77594728	    -14.11426261	      1.63580277	     27.95323137	     43.52315390	      1.34137260	    -18.47551565	    -21.33307814	    -10.03463786	     -4.84308249	     10.69006395	     26.06506895	     -6.38624267	      0.39130815
      4.81500000	    -17.24049170	      9.79205876	    -10.97835393	     -1.12544434	     -0.04124739	     -0.35124955	      5.05013222	    -11.08796066	      0.53898745	    -34.31118567	    -16.32797348	      0.79913093	     29.49396502	     43.44070896	      1.76587304	    -18.14528003	    -22.12254776	     -9.54682608	     -5.40019814	      9.35574654	     26.18690581	     -6.74314804	      0.49285970
